#!OML:ASF F:\twosubjects\two\Thursday\Session 1\justin.ASF
:FULLY-SPECIFIED
:DEGREES
469
root 4.01288 16.888 -7.76966 8.79915 -0.41788 2.87628
lowerback 15.223 -2.40137 -5.03351
upperback 7.50685 -3.75074 2.79508
thorax -0.00800607 -2.07502 6.34137
lowerneck 0.140861 -16.1996 -20.4118
upperneck -16.894 -20.4451 25.3912
head 0.11411 -10.5685 10.2614
rclavicle 7.43455e-014 -2.42517e-014
rhumerus -67.0352 -30.1884 -19.7795
rradius 24.1524
rwrist 14.2304
rhand -31.9882 11.7024
rfingers 7.12502
rthumb -5.2373 -18.2129
lclavicle 7.43455e-014 -2.42517e-014
lhumerus -60.3938 19.4508 32.4426
lradius 24.3614
lwrist -34.8314
lhand -16.4859 48.496
lfingers 7.12502
lthumb 9.73142 78.2512
rfemur -39.4488 -3.58436 2.20851
rtibia 41.4336
rfoot -9.88769 -6.512
rtoes -20.0734
lfemur -8.84937 7.5389 -12.3875
ltibia 30.6366
lfoot -25.3011 5.06712
ltoes -26.0519
470
root 4.05766 16.8858 -7.78818 8.81603 -0.650669 2.87383
lowerback 15.0378 -2.51434 -4.95245
upperback 7.45715 -3.88265 2.83861
thorax 0.0531416 -2.14112 6.34868
lowerneck -0.406724 -16.0931 -20.0656
upperneck -16.4776 -20.2643 24.8022
head 0.155353 -10.4291 9.99546
rclavicle 5.34731e-014 -3.45885e-014
rhumerus -66.9308 -30.2953 -20.171
rradius 24.2754
rwrist 14.0394
rhand -32.187 11.9573
rfingers 7.12502
rthumb -5.4293 -17.9532
lclavicle 5.34731e-014 -3.45885e-014
lhumerus -59.9667 19.3786 32.9318
lradius 24.6991
lwrist -33.9376
lhand -15.1659 48.7944
lfingers 7.12502
lthumb 11.0047 78.4859
rfemur -39.5055 -3.53241 2.05396
rtibia 41.2163
rfoot -9.64361 -6.3651
rtoes -19.7612
lfemur -8.4008 7.62854 -12.6081
ltibia 29.7523
lfoot -25.2558 5.73363
ltoes -27.0194
471
root 4.09937 16.8792 -7.80929 8.83628 -0.949498 3.05205
lowerback 14.8889 -2.54633 -5.05792
upperback 7.3784 -3.93534 2.80792
thorax 0.0615773 -2.16839 6.37581
lowerneck -0.322298 -15.9074 -19.845
upperneck -16.6232 -20.0108 24.5788
head -0.007305 -10.3083 9.96023
rclavicle 2.96189e-014 -2.38542e-015
rhumerus -66.8719 -30.2865 -20.7379
rradius 24.4135
rwrist 13.5375
rhand -32.8659 11.5623
rfingers 7.12502
rthumb -6.08475 -18.3304
lclavicle 2.96189e-014 -2.38542e-015
lhumerus -59.4294 19.0616 33.561
lradius 25.212
lwrist -32.9645
lhand -14.1937 49.0003
lfingers 7.12502
lthumb 11.9424 78.6396
rfemur -39.6256 -3.38205 1.68554
rtibia 41.0345
rfoot -9.41658 -6.28109
rtoes -19.7617
lfemur -8.11578 7.79593 -13.0201
ltibia 29.1281
lfoot -25.1473 6.55159
ltoes -27.9953
472
root 4.14263 16.8685 -7.83204 8.96366 -1.16837 3.30314
lowerback 14.6327 -2.57956 -5.25759
upperback 7.23542 -3.99656 2.83021
thorax 0.0722047 -2.20192 6.50939
lowerneck -0.000675842 -15.7254 -19.8207
upperneck -16.7829 -19.7995 24.4985
head -0.161034 -10.2179 10.0086
rclavicle -1.19271e-015 6.36111e-015
rhumerus -66.7876 -30.246 -21.1433
rradius 24.508
rwrist 13.0499
rhand -33.0209 10.989
rfingers 7.12502
rthumb -6.23435 -18.8992
lclavicle -1.19271e-015 6.36111e-015
lhumerus -58.9238 18.9231 34.1094
lradius 25.4897
lwrist -31.9297
lhand -14.2981 48.9233
lfingers 7.12502
lthumb 11.8416 78.5685
rfemur -39.8306 -3.27627 1.20744
rtibia 40.8639
rfoot -9.31613 -6.30587
rtoes -19.903
lfemur -8.0363 7.82625 -13.5215
ltibia 28.7283
lfoot -24.9696 7.24166
ltoes -27.9348
473
root 4.17947 16.8601 -7.86094 9.05393 -1.30517 3.39784
lowerback 14.4897 -2.63156 -5.38116
upperback 7.15225 -4.07431 2.95284
thorax 0.0922841 -2.24599 6.71416
lowerneck -0.440778 -15.7324 -19.7581
upperneck -16.3401 -19.7958 24.1278
head -0.0274244 -10.1709 9.82313
rclavicle -3.02153e-014 3.49861e-014
rhumerus -66.6965 -30.6316 -21.1304
rradius 24.5723
rwrist 13.1289
rhand -32.6821 10.582
rfingers 7.12502
rthumb -5.90734 -19.3156
lclavicle -3.02153e-014 3.49861e-014
lhumerus -58.4849 19.3179 34.4176
lradius 25.8895
lwrist -31.2842
lhand -14.6943 49.2352
lfingers 7.12502
lthumb 11.4596 78.902
rfemur -39.9965 -3.0411 0.901601
rtibia 40.6952
rfoot -9.1271 -6.50301
rtoes -18.9984
lfemur -8.09754 7.78199 -13.8055
ltibia 28.5529
lfoot -24.4626 7.82272
ltoes -29.1055
474
root 4.21254 16.8673 -7.89046 9.03343 -1.25381 3.54762
lowerback 14.4895 -2.72176 -5.46314
upperback 7.11509 -4.20247 3.0031
thorax 0.0845563 -2.31231 6.83181
lowerneck -0.661406 -15.6634 -19.89
upperneck -16.2404 -19.6735 24.1801
head 0.032501 -10.0929 9.85004
rclavicle 3.97569e-015 -1.47101e-014
rhumerus -66.8159 -31.2291 -20.9549
rradius 24.5851
rwrist 13.3247
rhand -32.6556 10.4171
rfingers 7.12502
rthumb -5.88168 -19.4813
lclavicle 3.97569e-015 -1.47101e-014
lhumerus -57.8119 19.4958 34.8652
lradius 26.4487
lwrist -30.5547
lhand -14.7911 48.9505
lfingers 7.12502
lthumb 11.3662 78.6225
rfemur -39.9249 -3.12239 0.664355
rtibia 40.458
rfoot -8.80792 -6.47364
rtoes -17.6847
lfemur -8.22043 7.60818 -14.0799
ltibia 28.5575
lfoot -23.672 8.39579
ltoes -31.8433
475
root 4.24424 16.8745 -7.91066 9.02524 -1.21094 3.70974
lowerback 14.3574 -2.84852 -5.51143
upperback 7.04154 -4.37087 2.97353
thorax 0.104721 -2.39583 6.84118
lowerneck -0.491169 -15.4443 -19.843
upperneck -16.4062 -19.377 24.2625
head -0.093483 -9.96172 9.94194
rclavicle 6.89783e-014 -4.45278e-014
rhumerus -66.8368 -31.359 -21.3337
rradius 24.6857
rwrist 13.0666
rhand -32.8475 10.3523
rfingers 7.12502
rthumb -6.06695 -19.5408
lclavicle 6.89783e-014 -4.45278e-014
lhumerus -57.0562 19.2739 35.3462
lradius 26.7444
lwrist -29.5602
lhand -14.8683 48.4
lfingers 7.12502
lthumb 11.2917 78.0761
rfemur -39.8068 -3.43865 0.500909
rtibia 40.1582
rfoot -8.57176 -6.33458
rtoes -17.4133
lfemur -8.33112 7.58737 -14.3464
ltibia 28.6226
lfoot -23.5754 8.07663
ltoes -31.5908
476
root 4.26792 16.8844 -7.92955 9.10289 -1.4433 3.81712
lowerback 14.211 -2.87536 -5.71493
upperback 6.85934 -4.42791 2.98648
thorax 0.0170503 -2.42173 6.97474
lowerneck -0.500559 -15.3333 -19.7183
upperneck -16.171 -19.254 24.0206
head -0.0971158 -9.88944 9.8576
rclavicle 2.68359e-014 -9.93923e-015
rhumerus -67.0529 -31.5206 -21.3465
rradius 24.8566
rwrist 13.2203
rhand -32.9719 10.9111
rfingers 7.12502
rthumb -6.18704 -18.9786
lclavicle 2.68359e-014 -9.93923e-015
lhumerus -56.5537 18.9676 35.7966
lradius 27.158
lwrist -28.5393
lhand -14.7517 48.332
lfingers 7.12502
lthumb 11.4042 78.0019
rfemur -39.8551 -3.31331 0.337917
rtibia 39.864
rfoot -8.54837 -6.66068
rtoes -16.6938
lfemur -8.45273 7.70766 -14.5835
ltibia 28.5972
lfoot -24.2956 7.32128
ltoes -29.4707
477
root 4.28788 16.9036 -7.94599 9.17986 -1.72747 3.87784
lowerback 14.1416 -2.8532 -5.95433
upperback 6.63448 -4.4278 3.05172
thorax -0.157912 -2.41581 7.18603
lowerneck -0.684257 -15.3122 -19.8717
upperneck -15.6209 -19.2627 23.8017
head 0.0737842 -9.85695 9.76318
rclavicle 9.10434e-014 -4.37326e-014
rhumerus -67.3463 -31.989 -20.9019
rradius 24.7683
rwrist 13.6691
rhand -33.1201 11.4282
rfingers 7.12502
rthumb -6.33016 -18.4572
lclavicle 9.10434e-014 -4.37326e-014
lhumerus -56.2616 18.7619 36.2636
lradius 28.1415
lwrist -27.1979
lhand -15.1236 48.2271
lfingers 7.12502
lthumb 11.0456 77.9165
rfemur -39.893 -3.14683 0.276848
rtibia 39.6168
rfoot -8.66291 -6.99627
rtoes -15.4304
lfemur -8.51708 7.8799 -14.7785
ltibia 28.4731
lfoot -24.3697 6.92829
ltoes -29.0627
478
root 4.30759 16.9161 -7.95564 9.18251 -1.90695 3.91494
lowerback 13.9767 -2.87964 -6.08037
upperback 6.59114 -4.47169 3.0808
thorax -0.0944924 -2.44331 7.28372
lowerneck -1.36662 -15.3002 -19.4997
upperneck -15.0003 -19.2125 23.1764
head 0.223272 -9.77758 9.43882
rclavicle 3.18055e-015 -7.95139e-016
rhumerus -67.2968 -32.5688 -20.9037
rradius 24.5847
rwrist 13.8029
rhand -33.1903 11.4826
rfingers 7.12502
rthumb -6.39795 -18.4007
lclavicle 3.18055e-015 -7.95139e-016
lhumerus -55.6732 18.9484 36.5348
lradius 28.9342
lwrist -26.0156
lhand -15.488 47.9686
lfingers 7.12502
lthumb 10.694 77.6764
rfemur -39.8219 -3.15525 0.282916
rtibia 39.418
rfoot -8.84305 -7.12891
rtoes -14.4082
lfemur -8.4387 8.17689 -14.9106
ltibia 28.3127
lfoot -24.3602 6.80721
ltoes -29.2755
479
root 4.3279 16.9263 -7.96765 9.22001 -2.19798 4.11136
lowerback 13.7011 -2.85155 -6.24972
upperback 6.64048 -4.44456 2.97022
thorax 0.105711 -2.44183 7.23551
lowerneck -2.06675 -15.2992 -18.9596
upperneck -14.5019 -19.1582 22.6988
head 0.346739 -9.71376 9.14423
rclavicle 8.74653e-015 1.43125e-014
rhumerus -67.4806 -33.4376 -20.7854
rradius 24.5293
rwrist 14.2645
rhand -33.174 11.5228
rfingers 7.12502
rthumb -6.38224 -18.3611
lclavicle 8.74653e-015 1.43125e-014
lhumerus -54.7646 19.3747 36.6122
lradius 29.4817
lwrist -25.2914
lhand -14.7476 47.9433
lfingers 7.12502
lthumb 11.4082 77.613
rfemur -39.8845 -3.02353 0.0404229
rtibia 39.2522
rfoot -8.91453 -7.27489
rtoes -14.1939
lfemur -8.38509 8.46545 -15.251
ltibia 28.1041
lfoot -24.2323 6.80997
ltoes -29.4717
480
root 4.34956 16.9386 -7.98262 9.34607 -2.53487 4.16037
lowerback 13.4969 -2.7973 -6.20774
upperback 6.52401 -4.3615 2.90102
thorax 0.0662317 -2.3923 7.11811
lowerneck -2.2562 -15.2636 -18.7704
upperneck -14.1664 -19.1154 22.5435
head 0.425193 -9.67972 9.04472
rclavicle 5.34731e-014 -1.43125e-014
rhumerus -67.6552 -33.9387 -20.8712
rradius 24.5933
rwrist 14.3747
rhand -33.151 11.1986
rfingers 7.12502
rthumb -6.36002 -18.6859
lclavicle 5.34731e-014 -1.43125e-014
lhumerus -53.9313 19.5718 36.8367
lradius 30.2289
lwrist -24.2569
lhand -13.715 48.3926
lfingers 7.12502
lthumb 12.4039 78.0046
rfemur -40.1263 -2.87351 -0.0322222
rtibia 39.1263
rfoot -8.90843 -7.44442
rtoes -14.5435
lfemur -8.42686 8.65027 -15.4645
ltibia 27.828
lfoot -23.916 7.01531
ltoes -28.5444
481
root 4.36838 16.953 -7.99285 9.43483 -2.74502 3.91925
lowerback 13.3992 -2.78485 -5.89154
upperback 6.34302 -4.30487 2.95771
thorax -0.106701 -2.34475 6.99291
lowerneck -2.37575 -15.2209 -18.5844
upperneck -13.9374 -19.0673 22.2845
head 0.447003 -9.64322 8.92818
rclavicle 4.33351e-014 7.15625e-015
rhumerus -67.3771 -33.77 -21.7645
rradius 24.7962
rwrist 13.4693
rhand -33.1895 10.7591
rfingers 7.12502
rthumb -6.39717 -19.1243
lclavicle 4.33351e-014 7.15625e-015
lhumerus -52.9917 19.3997 37.3732
lradius 30.8202
lwrist -22.8417
lhand -12.948 48.7579
lfingers 7.12502
lthumb 13.1433 78.3236
rfemur -40.2218 -2.86396 0.323273
rtibia 38.9943
rfoot -8.89885 -7.801
rtoes -13.84
lfemur -8.32013 8.60906 -15.323
ltibia 27.4197
lfoot -24.3335 7.01336
ltoes -26.7581
482
root 4.38629 16.9726 -7.99479 9.51804 -3.08678 3.87868
lowerback 13.1725 -2.75643 -5.83443
upperback 6.16398 -4.25329 2.96218
thorax -0.188561 -2.30922 6.95061
lowerneck -2.46205 -15.1317 -18.6977
upperneck -13.595 -18.9653 22.2244
head 0.542398 -9.57408 8.91598
rclavicle 6.59965e-014 -2.8625e-014
rhumerus -66.9839 -33.4557 -22.8245
rradius 25.0565
rwrist 12.3599
rhand -33.1686 11.0945
rfingers 7.12502
rthumb -6.37698 -18.7895
lclavicle 6.59965e-014 -2.8625e-014
lhumerus -52.1358 19.273 37.841
lradius 31.2837
lwrist -21.7201
lhand -12.3637 48.8848
lfingers 7.12502
lthumb 13.7065 78.4134
rfemur -40.3134 -2.96952 0.551348
rtibia 38.8766
rfoot -8.9536 -8.38852
rtoes -13.1691
lfemur -8.07757 8.43562 -15.4576
ltibia 26.89
lfoot -22.8792 7.96832
ltoes -31.6259
